#!OML:ASF I:\Actors\actors\Patient Classification 1\Patient 1\Session 1\Subject1.ASF
:FULLY-SPECIFIED
:DEGREES
117
root 0.846698 17.3764 10.1531 8.67363 1.46778 -7.0933
lowerback -9.51657 0.531619 5.65386
upperback -14.7102 0.679589 1.42601
thorax -10.4972 -0.149452 -1.59987
lowerneck -7.28524 -6.95832 -3.96978
upperneck 11.26 -10.1297 8.87344
head 5.24381 -4.61067 2.67913
rclavicle -7.85199e-015 2.56432e-014
rhumerus -60.8365 30.0155 -110.736
rradius 116.6
rwrist -21.5647
rhand 34.0011 -22.0428
rfingers 7.12502
rthumb 57.2636 -38.407
lclavicle -7.85199e-015 2.56432e-014
lhumerus -68.6149 -31.3687 110.554
lradius 111.524
lwrist 32.022
lhand -0.795379 -12.9922
lfingers 7.12502
lthumb 24.8283 15.4158
rfemur 2.965 23.2116 26.2714
rtibia 2.62457
rfoot -16.7995 -22.5162
rtoes 0.569459
lfemur 13.3122 -44.6432 -19.3106
ltibia -4.51043
lfoot -22.1411 50.7444
ltoes 3.94123
118
root 0.841781 17.3697 10.1893 8.65768 1.38401 -7.14577
lowerback -9.27988 0.608807 5.70083
upperback -14.7757 0.800364 1.39187
thorax -10.7044 -0.102708 -1.6629
lowerneck -7.23248 -7.00776 -3.7094
upperneck 9.88378 -10.096 8.84091
head 4.79488 -4.62196 2.64906
rclavicle 7.25564e-015 -1.51076e-014
rhumerus -62.5438 29.3856 -111.47
rradius 117.024
rwrist -21.6069
rhand 33.9561 -22.2339
rfingers 7.12502
rthumb 57.2242 -38.6316
lclavicle 7.25564e-015 -1.51076e-014
lhumerus -70.5839 -30.5035 111.086
lradius 112.008
lwrist 30.9593
lhand -0.66795 -13.3334
lfingers 7.12502
lthumb 24.9504 15.0578
rfemur 3.07507 23.0619 26.3801
rtibia 2.7026
rfoot -16.7829 -22.3607
rtoes -0.101655
lfemur 13.4832 -44.353 -19.3168
ltibia -4.55125
lfoot -22.0761 50.6287
ltoes 3.67909
119
root 0.837961 17.3627 10.2209 8.66012 1.2956 -7.12404
lowerback -9.27889 0.67426 5.64751
upperback -14.5826 0.879312 1.38328
thorax -10.4664 -0.0500303 -1.64449
lowerneck -7.45989 -6.98829 -3.6027
upperneck 8.45176 -9.96904 9.05222
head 4.39368 -4.57349 2.71719
rclavicle -3.27995e-015 5.00937e-014
rhumerus -63.5878 29.1475 -111.977
rradius 117.258
rwrist -22.1171
rhand 34.0144 -22.2901
rfingers 7.12502
rthumb 57.2754 -38.6444
lclavicle -3.27995e-015 5.00937e-014
lhumerus -71.9339 -29.7856 111.45
lradius 112.525
lwrist 31.568
lhand -0.834023 -13.0271
lfingers 7.12502
lthumb 24.7913 15.386
rfemur 3.096 22.8942 26.3568
rtibia 2.85491
rfoot -16.8032 -22.1603
rtoes -0.747687
lfemur 13.5363 -44.0872 -19.3682
ltibia -4.46814
lfoot -22.3125 50.4314
ltoes 3.83736
120
root 0.835612 17.3572 10.2457 8.55762 1.20507 -7.02109
lowerback -9.37525 0.673787 5.46181
upperback -14.0944 0.856414 1.43768
thorax -9.83036 -0.017396 -1.48693
lowerneck -7.91499 -6.77118 -3.53558
upperneck 7.03919 -9.5873 9.48543
head 4.03545 -4.38429 2.87015
rclavicle 1.63997e-014 -1.07344e-014
rhumerus -64.114 29.4995 -112.444
rradius 117.309
rwrist -22.7649
rhand 33.8517 -22.3081
rfingers 7.12502
rthumb 57.1324 -38.7832
lclavicle 1.63997e-014 -1.07344e-014
lhumerus -72.8064 -29.0774 111.756
lradius 112.968
lwrist 32.1667
lhand -2.03592 -13.2942
lfingers 7.12502
lthumb 23.6389 15.2725
rfemur 3.19169 22.6963 26.254
rtibia 3.03016
rfoot -16.9448 -21.8826
rtoes -1.01038
lfemur 13.6319 -43.7401 -19.5711
ltibia -4.29861
lfoot -22.5714 50.143
ltoes 4.05818
121
root 0.832832 17.3534 10.2518 8.2938 1.08539 -6.74038
lowerback -9.54008 0.559389 4.87358
upperback -13.1105 0.676509 1.62322
thorax -8.59518 -0.00206134 -0.973252
lowerneck -8.06275 -6.59108 -3.17398
upperneck 3.79553 -9.07881 9.24101
head 3.34437 -4.23118 3.13044
rclavicle 5.56597e-015 1.88845e-014
rhumerus -63.9514 30.2702 -112.615
rradius 117.362
rwrist -23.0416
rhand 33.3885 -22.4758
rfingers 7.12502
rthumb 56.7248 -39.2888
lclavicle 5.56597e-015 1.88845e-014
lhumerus -72.8331 -28.3612 111.883
lradius 113.263
lwrist 31.6793
lhand -4.23777 -14.8744
lfingers 7.12502
lthumb 21.5256 13.9495
rfemur 3.34304 22.5614 25.9777
rtibia 3.29736
rfoot -17.1314 -21.6274
rtoes -0.880974
lfemur 13.5936 -42.9536 -19.8207
ltibia -4.04784
lfoot -22.2562 49.5146
ltoes 3.60101
122
root 0.829049 17.3506 10.2352 7.97576 0.952075 -6.32271
lowerback -8.23152 0.636707 4.6128
upperback -12.7942 0.842966 1.35447
thorax -8.96055 0.0845306 -1.12332
lowerneck -7.67859 -6.5833 -3.03051
upperneck 1.0686 -8.87714 9.71609
head 2.35042 -4.18875 3.30226
rclavicle -1.30204e-014 2.18663e-014
rhumerus -64.8754 29.7177 -113.574
rradius 117.667
rwrist -22.2651
rhand 33.2315 -22.688
rfingers 7.12502
rthumb 56.5864 -39.6134
lclavicle -1.30204e-014 2.18663e-014
lhumerus -74.3729 -27.7228 112.696
lradius 113.631
lwrist 30.1336
lhand -6.76276 -17.1345
lfingers 7.12502
lthumb 19.099 11.9478
rfemur 3.33571 22.4737 25.5154
rtibia 3.79038
rfoot -17.3333 -21.4193
rtoes -0.503835
lfemur 13.2757 -41.8652 -19.9765
ltibia -3.68949
lfoot -21.6626 48.5842
ltoes 2.94223
123
root 0.826331 17.3497 10.2087 7.73432 0.946728 -6.17132
lowerback -7.76731 0.503332 4.24507
upperback -11.6705 0.667606 1.55314
thorax -7.95449 0.0690026 -0.719994
lowerneck -7.6834 -6.42781 -2.87947
upperneck -2.72544 -8.36737 10.1709
head 1.08224 -4.0179 3.49338
rclavicle -1.78906e-015 9.14409e-015
rhumerus -64.6068 30.5121 -113.753
rradius 117.97
rwrist -20.8907
rhand 33.6237 -22.7836
rfingers 7.12502
rthumb 56.9319 -39.4261
lclavicle -1.78906e-015 9.14409e-015
lhumerus -73.925 -26.5987 112.75
lradius 113.723
lwrist 28.3579
lhand -9.61919 -19.1006
lfingers 7.12502
lthumb 16.3503 10.2301
rfemur 3.07742 22.2307 25.3204
rtibia 4.53122
rfoot -17.605 -21.1449
rtoes -0.218045
lfemur 12.5617 -40.4127 -19.4897
ltibia -3.26747
lfoot -20.5063 47.2936
ltoes 1.52818
124
root 0.826911 17.3569 10.1836 7.82405 1.34058 -6.85629
lowerback -7.20272 0.383777 4.95
upperback -10.8565 0.508696 1.81395
thorax -7.38046 -0.0338152 -0.846736
lowerneck -8.27612 -6.19137 -2.45577
upperneck -5.43672 -7.85161 10.2086
head 0.252415 -3.81673 3.47719
rclavicle 5.46658e-016 0
rhumerus -64.6546 30.9348 -114.096
rradius 118.192
rwrist -19.1753
rhand 34.3174 -22.6791
rfingers 7.12502
rthumb 57.541 -38.8053
lclavicle 5.46658e-016 0
lhumerus -73.7009 -25.172 112.707
lradius 113.69
lwrist 27.3954
lhand -12.7967 -20.574
lfingers 7.12502
lthumb 13.2892 8.98229
rfemur 2.38696 21.5711 26.0012
rtibia 5.40353
rfoot -17.8312 -20.7348
rtoes -0.0994721
lfemur 11.1605 -38.6495 -17.5105
ltibia -2.83229
lfoot -18.9793 45.4804
ltoes -0.646527
125
root 0.826648 17.3731 10.1216 8.13652 1.62691 -7.2677
lowerback -6.25253 0.284704 5.36183
upperback -10.0699 0.409929 2.00835
thorax -7.06048 -0.0886253 -0.881134
lowerneck -9.54128 -6.61764 -2.71589
upperneck -7.92817 -8.16652 11.2004
head -0.25551 -3.99203 3.86651
rclavicle -1.68967e-015 8.94531e-016
rhumerus -64.2516 31.4657 -114.073
rradius 118.167
rwrist -18.0927
rhand 34.8269 -22.4356
rfingers 7.12502
rthumb 57.9862 -38.1693
lclavicle -1.68967e-015 8.94531e-016
lhumerus -72.7794 -23.7479 112.31
lradius 113.413
lwrist 27.6481
lhand -15.2732 -21.0639
lfingers 7.12502
lthumb 10.9012 8.63317
rfemur 1.08793 21.0569 26.1674
rtibia 6.54343
rfoot -17.9167 -20.4088
rtoes -0.144777
lfemur 9.17162 -36.8779 -15.549
ltibia -2.16131
lfoot -17.8534 43.6091
ltoes -2.11677
126
root 0.825562 17.4021 10.032 8.6601 1.87582 -7.45407
lowerback -5.04591 0.260328 5.62274
upperback -9.3186 0.435472 2.12933
thorax -6.92496 -0.0761841 -0.908615
lowerneck -10.8033 -6.90269 -2.4579
upperneck -10.3514 -8.3507 11.2644
head -0.833606 -4.11859 3.85557
rclavicle -2.68359e-015 1.98785e-015
rhumerus -63.6953 32.0922 -113.781
rradius 118.016
rwrist -18.0022
rhand 34.9115 -22.2465
rfingers 7.12502
rthumb 58.06 -37.9139
lclavicle -2.68359e-015 1.98785e-015
lhumerus -71.4216 -22.5853 111.874
lradius 113.067
lwrist 28.0937
lhand -16.5978 -20.1277
lfingers 7.12502
lthumb 9.62343 9.63254
rfemur -0.668028 20.5946 25.9228
rtibia 7.82054
rfoot -17.8958 -20.1929
rtoes -0.45634
lfemur 6.81978 -35.1072 -13.6752
ltibia -1.48091
lfoot -16.4309 41.8382
ltoes -3.93335
127
root 0.807271 17.4552 9.94349 8.87657 2.39351 -7.53441
lowerback -3.49333 0.00888641 5.51214
upperback -8.49417 0.184742 2.27445
thorax -6.92752 -0.176738 -0.699254
lowerneck -12.9071 -7.11061 -1.492
upperneck -11.929 -8.61923 10.6227
head -1.07001 -4.26942 3.4205
rclavicle 1.37037e-014 -3.96575e-014
rhumerus -63.5659 33.0674 -113.965
rradius 117.872
rwrist -18.512
rhand 34.9576 -22.282
rfingers 7.12502
rthumb 58.1002 -37.9131
lclavicle 1.37037e-014 -3.96575e-014
lhumerus -70.0404 -21.3302 111.178
lradius 112.911
lwrist 27.0848
lhand -17.3575 -19.2504
lfingers 7.12502
lthumb 8.89041 10.5423
rfemur -1.74552 20.5544 25.9371
rtibia 8.75132
rfoot -17.9513 -20.6906
rtoes -0.232155
lfemur 5.08136 -33.6252 -12.2144
ltibia -1.02632
lfoot -14.9506 40.1415
ltoes -5.89258
128
root 0.7957 17.5086 9.83954 9.47118 2.74678 -7.64998
lowerback -2.09059 -0.125971 5.57663
upperback -7.77482 0.0817501 2.36925
thorax -6.96036 -0.21956 -0.636852
lowerneck -9.3275 -5.63779 -2.16785
upperneck -18.4773 -5.93798 11.9614
head -3.5225 -3.23815 4.05775
rclavicle 2.27981e-015 -4.81059e-014
rhumerus -63.719 34.1028 -114.339
rradius 117.836
rwrist -18.819
rhand 35.273 -22.2441
rfingers 7.12502
rthumb 58.3748 -37.6243
lclavicle 2.27981e-015 -4.81059e-014
lhumerus -68.6556 -20.2439 110.555
lradius 112.817
lwrist 24.2325
lhand -17.8714 -19.7376
lfingers 7.12502
lthumb 8.39443 10.0756
rfemur -3.41246 20.3747 25.699
rtibia 9.74745
rfoot -17.901 -20.842
rtoes -0.127145
lfemur 2.973 -32.4832 -10.7169
ltibia -0.461643
lfoot -14.1981 38.8859
ltoes -6.42754
